<?xml version="1.0" standalone="no"?>
<!DOCTYPE svg PUBLIC "-//W3C//DTD SVG 20010904//EN"
 "http://www.w3.org/TR/2001/REC-SVG-20010904/DTD/svg10.dtd">
<svg version="1.0" xmlns="http://www.w3.org/2000/svg"
 width="100.000000pt" height="100.000000pt" viewBox="0 0 100.000000 100.000000"
 preserveAspectRatio="xMidYMid meet">
<metadata>
Created by potrace 1.11, written by Peter Selinger 2001-2013
</metadata>
<g transform="translate(0.000000,100.000000) scale(0.100000,-0.100000)"
fill="#000000" stroke="none">
<path d="M265 810 c-93 -24 -173 -90 -215 -175 -34 -71 -35 -200 -1 -265 39
-75 77 -115 141 -149 82 -44 162 -51 248 -22 l62 21 63 -21 c114 -39 231 -11
321 76 67 65 89 122 90 225 0 74 -3 92 -27 138 -77 148 -234 214 -384 163
l-63 -21 -60 20 c-61 20 -122 24 -175 10z m516 -59 c60 -31 96 -67 127 -126
22 -41 26 -63 26 -125 0 -62 -4 -84 -26 -125 -62 -119 -188 -176 -317 -145
l-51 12 34 40 c61 71 80 122 80 218 0 96 -19 148 -79 217 l-33 38 31 11 c52
19 157 11 208 -15z m-233 -66 c99 -112 91 -292 -17 -387 l-35 -31 -41 46 c-73
80 -93 200 -51 300 17 38 81 117 96 117 5 0 26 -20 48 -45z"/>
</g>
</svg>
